<svg xmlns="http://www.w3.org/2000/svg" xmlns:xlink="http://www.w3.org/1999/xlink" width="1022.012" height="270.559" viewBox="0 0 1022.012 270.559"><defs><clipPath id="a"><ellipse cx="42.717" cy="35.174" rx="42.717" ry="35.174" fill="none"/></clipPath></defs><path d="M592.238,284.087h-.614q-17.2,0-17.2-10.9,0-5.7,6.758-23.8,3.069-8.211,3.07-32.854l.411-35.2V167.082l.2-21.458q0-38.05-.716-45.595t-5.427-19.109q-4.714-11.568-4.709-16.009a8.329,8.329,0,0,1,4.2-7.208q4.194-2.765,19.657-2.765T625.411,60.8q12.081,5.872,24.369,17.6a554.675,554.675,0,0,1,55.9,61.855q53.854,69.063,56.517,69.063,3.889,0,3.892-32.688l.409-13.746q.2-7.039.2-29.838a284.432,284.432,0,0,0-2.251-38.806Q762.2,78.24,762.2,70.7t7.27-12.406q7.265-4.859,20.579-4.86T809.3,56.279q10.85,5.2,10.853,19.444l-.2,5.868a64.051,64.051,0,0,1-2.662,12.572L815.44,100.2q-2.664,8.719-3.892,14.249t-1.228,74.761q0,69.235-4.709,85.827-2.872,9.89-12.9,9.89-24.573,0-40.544-14.92-8.6-7.878-31.434-38.052t-29.384-38.386q-52.422-64.7-59.588-64.705-4.715,0-4.71,32.772t1.024,54.4q1.021,21.623,2.765,30.425a76.4,76.4,0,0,1,1.739,11.817Q632.577,284.087,592.238,284.087Z" transform="translate(-574.015 -18.455)" fill="#405384"/><path d="M829.258,126.92q3.274,0,19.044-2.806a169.344,169.344,0,0,1,29.588-2.806,75.784,75.784,0,0,1,27.747,5.442q28.872,11.566,41.16,43.029a101.126,101.126,0,0,1,6.347,36.564V210.6q0,39.286-26.619,62.756-11.267,10.036-27.849,15.9a105.484,105.484,0,0,1-35.425,5.866h-4.915q-9.828,0-26.723-3.911T810.418,287.3a35.5,35.5,0,0,0-10.442,1.955,37.424,37.424,0,0,1-11.263,1.955q-16.387,0-22.013-5.1t-5.632-19.218l.2-3.741q.2-3.74.411-7.654l.613-11.735q.816-15.646.819-25.851v-22.45l.2-3.911V167.057l.206-12.244V109.744q0-16.836-1.741-23.385a108.939,108.939,0,0,0-4.709-13.69,38.807,38.807,0,0,1-2.971-15.051q0-7.91,6.86-10.971t27.952-3.062h4.71q13.1,0,18.327,8.165t5.222,28.911l.613,19.218Q817.789,126.92,829.258,126.92ZM814.514,234.236q0,33.507,37.679,33.5l2.047-.17q20.271,0,32.765-13.181t12.49-38.862v-9.013q0-28.063-11.058-42.348t-31.125-14.286h-3.686q-23.142,0-33.173,13.775-6.962,9.695-6.962,37.416v16.837l.206,1.531L814.309,231A27.363,27.363,0,0,1,814.514,234.236Z" transform="translate(-461.9 -24.562)" fill="#405384"/><path d="M952.911,294H937.35q-17,0-24.163-5.1t-7.167-15.3q0-2.552,1.843-10.37l1.433-5.271q5.323-19.379,5.325-30.43v-14.28l.2-6.46V183.672l.205-9.86V157.322q0-63.581-.614-69.277t-5.939-16.489q-5.328-10.794-5.325-13.175V55.49q0-7.306,8.7-9.859t29.486-2.55q20.782,0,24.267,12.75.407,1.53.408,41.481l-.2,3.4v6.46l-.2,10.029v16.321l-.2,6.46q0,80.241,1.944,91.46T978,259.408q8.7,16.746,8.705,17.424Q986.7,294,952.911,294Z" transform="translate(-369.111 -24.874)" fill="#405384"/><path d="M1008.573,269.79Q984,269.614,984,253.528q0-7.692,3.993-17.136a107.887,107.887,0,0,0,5.734-16.786q1.738-7.345,1.74-42.928t-1.33-40.043q-1.335-4.458-6.656-12.327t-5.324-12.065v-2.1q0-8.565,6.552-11.278t22.321-2.71l8.6-.524h8.4q14.944,0,17.405,10.315.816,3.325.82,29.552v37.419l.2,7.345v12.414l.409,7.17q.2,2.45.206,8.306t6.963,21.419q6.958,15.565,6.96,20.635v1.922q0,17.663-35.425,17.661Z" transform="translate(-319.927 -0.662)" fill="#405384"/><path d="M1061.917,69.593q0-17,35.425-17.005,16.379,0,24.881,5.808t8.5,12.544q0,.338-3.175,15.49a142.743,142.743,0,0,0-3.173,29.294q0,31.315,9.317,31.315t42.9-34.009Q1196.86,92.492,1203,84.241a146.346,146.346,0,0,0,10.75-16.584q4.609-8.334,8.5-10.691,9.009-5.557,26.417-5.556h7.371q11.261,0,16.79,2.525t5.528,9.429q0,4.04-42.693,44.615t-42.693,50.34q0,1.011,31.636,39.733t49.657,57.075q18.015,18.354,18.019,24.413,0,9.091-23.343,9.09h-7.782q-20.478,0-32.968-9.428-5.53-4.038-22.115-28.115a425.551,425.551,0,0,0-33.276-42.68q-16.695-18.6-26.109-18.6-20.072,0-20.068,38.219l4.5,34.009q0,12.627-10.852,20.707-6.966,5.223-25.6,5.221t-25.187-3.537q-6.556-3.536-6.552-13.47,0-2.86,4.1-15.994t4.095-35.356V171.115q0-47.814-.409-56.317t-4.608-25.759Q1061.914,71.784,1061.917,69.593Z" transform="translate(-270.272 -19.708)" fill="#405384"/><g transform="translate(650.765 0)" clip-path="url(#a)"><g fill="#fff" stroke="#405384" stroke-width="0.75"><ellipse cx="42.717" cy="35.174" rx="42.717" ry="35.174" stroke="none"/><ellipse cx="42.717" cy="35.174" rx="42.342" ry="34.799" fill="none"/></g><path d="M7.807,47.311a19.307,19.307,0,0,0,6.143-1.2c4.1-1.311,4.69-5.584,6.407-4.1s1.255,1.994,1.321,4.1.793,7.35,2.114,10.086.661,2.279,5.549,10.712S33.833,78.651,37.268,80.7s7.266,1.823,9.908-3.875,2.642-6.724,3.171-12.764.925-6.724,2.378-7.863,3.963-.912,7.795-3.761,4.624-1.6,8.191-7.066,4.888-2.507,9.248-5.128,4.624-4.1,4.624-4.1L94.207,21.214,46.383,6.741,9.855,18.251,3.844,37.511,2.522,46.742Z" transform="translate(-1.201 -22.206)" fill="#405384"/></g></svg>